Coordinates
version=1
nRows=49
nColumns=12
inDegrees=yes

Units are S.I. units (second, meters, Newtons, ...)
Angles are in degrees

endheader
time	SC_y	SC_z	SC_x	AC_y	AC_z	AC_x	GH_y	GH_z	GH_yy	EL_x	PS_y
       0.0              -21.87          22.06          31.46          40.29         -8.688         -2.578          173.0          20.34         -11.33          74.19          114.6
   0.01691              -21.87          22.05          31.47           40.3         -8.686         -2.577          173.0          20.34         -11.32          74.19          114.6
   0.03381              -21.87          22.05          31.48           40.3         -8.685         -2.576          173.0          20.34          -11.3           74.2          114.6
   0.05072              -21.88          22.05          31.48           40.3         -8.683         -2.576          172.9          20.34         -11.28          74.21          114.6
   0.06762              -21.88          22.05          31.49          40.31         -8.682         -2.575          172.9          20.34         -11.25          74.22          114.6
   0.08453              -21.88          22.05           31.5          40.31          -8.68         -2.574          172.8          20.34         -11.23          74.23          114.6
    0.1014              -21.89          22.04          31.51          40.32         -8.678         -2.574          172.8          20.34          -11.2          74.24          114.6
    0.1183              -21.89          22.04          31.52          40.33         -8.676         -2.573          172.8          20.34         -11.18          74.25          114.6
    0.1352               -21.9          22.04          31.53          40.33         -8.674         -2.572          172.7          20.34         -11.15          74.26          114.6
    0.1522               -21.9          22.04          31.55          40.34         -8.672         -2.571          172.7          20.34         -11.12          74.28          114.5
    0.1691              -21.91          22.03          31.56          40.34         -8.669          -2.57          172.6          20.34         -11.08          74.29          114.5
     0.186              -21.92          22.03          31.57          40.35         -8.667         -2.569          172.5          20.34         -11.05           74.3          114.5
    0.2029              -21.92          22.03          31.59          40.36         -8.664         -2.567          172.5          20.34         -11.01          74.32          114.5
    0.2198              -21.93          22.02           31.6          40.37         -8.661         -2.566          172.4          20.35         -10.97          74.34          114.5
    0.2367              -21.94          22.02          31.62          40.38         -8.657         -2.565          172.3          20.35         -10.92          74.36          114.4
    0.2536              -21.95          22.01          31.64          40.39         -8.654         -2.563          172.2          20.35         -10.87          74.38          114.4
    0.2705              -21.96          22.01          31.66           40.4          -8.65         -2.561          172.1          20.35         -10.82           74.4          114.4
    0.2874              -21.97           22.0          31.68          40.41         -8.646         -2.559          172.0          20.35         -10.76          74.42          114.4
    0.3043              -21.98           22.0          31.71          40.43         -8.641         -2.557          171.9          20.35          -10.7          74.45          114.3
    0.3212              -21.99          21.99          31.73          40.44         -8.636         -2.555          171.8          20.36         -10.63          74.48          114.3
    0.3381               -22.0          21.99          31.76          40.46          -8.63         -2.553          171.7          20.36         -10.55          74.51          114.3
     0.355              -22.02          21.98          31.79          40.47         -8.624          -2.55          171.5          20.36         -10.47          74.54          114.2
    0.3719              -22.04          21.97          31.83          40.49         -8.617         -2.547          171.4          20.36         -10.38          74.58          114.2
    0.3888              -22.05          21.96          31.87          40.51         -8.609         -2.544          171.2          20.36         -10.28          74.62          114.2
    0.4057              -22.07          21.95          31.91          40.54         -8.601          -2.54          171.0          20.37         -10.16          74.67          114.1
    0.4227               -22.1          21.94          31.96          40.56         -8.592         -2.536          170.8          20.37         -10.03          74.72          114.0
    0.4396              -22.12          21.93          32.01          40.59         -8.581         -2.531          170.5          20.38         -9.891          74.78          114.0
    0.4565              -22.15          21.91          32.08          40.63         -8.569         -2.526          170.2          20.38         -9.731          74.85          113.9
    0.4734              -22.18           21.9          32.15          40.67         -8.556         -2.521          169.9          20.38          -9.55          74.92          113.8
    0.4903              -22.22          21.88          32.22          40.71         -8.541         -2.514          169.6          20.39         -9.344           75.0          113.7
    0.5072              -22.26          21.86          32.31          40.76         -8.523         -2.506          169.2           20.4          -9.11           75.1          113.6
    0.5241              -22.31          21.83          32.42          40.81         -8.503         -2.498          168.7           20.4          -8.84          75.21          113.5
     0.541              -22.37          21.81          32.54          40.88          -8.48         -2.488          168.2          20.41         -8.529          75.34          113.4
    0.5579              -22.43          21.77          32.67          40.96         -8.454         -2.476          167.5          20.42         -8.168          75.49          113.2
    0.5748               -22.5          21.74          32.84          41.04         -8.422         -2.463          166.8          20.43         -7.745          75.66          113.0
    0.5917              -22.59          21.69          33.03          41.15         -8.385         -2.447          165.9          20.45         -7.247          75.87          112.8
    0.6086               -22.7          21.64          33.25          41.27         -8.342         -2.428          164.9          20.46         -6.655          76.11          112.5
    0.6255              -22.83          21.58          33.53          41.42         -8.289         -2.405          163.7          20.48         -5.945           76.4          112.2
    0.6424              -22.98           21.5          33.86           41.6         -8.226         -2.378          162.2          20.51         -5.086          76.76          111.8
    0.6593              -23.17          21.41          34.26          41.82         -8.148         -2.344          160.4          20.53         -4.036          77.19          111.3
    0.6762               -23.4          21.29          34.75          42.09         -8.052         -2.302          158.1          20.57         -2.741          77.72          110.7
    0.6932              -23.68          21.15          35.37          42.43         -7.933         -2.251          155.3          20.61         -1.127          78.39          110.0
    0.7101              -24.05          20.97          36.15          42.85         -7.782         -2.186          151.8          20.67         0.9077          79.22          109.1
     0.727              -24.51          20.74          37.14           43.4         -7.591         -2.103          147.3          20.74          3.494          80.29          107.9
    0.7439               -25.1          20.45          38.41          44.09         -7.346         -1.997          141.5          20.83          6.804          81.65          106.4
    0.7608              -25.86          20.07          40.04          44.98         -7.032         -1.861          134.1          20.94          11.05           83.4          104.5
    0.7777              -26.82          19.59          42.12          46.11          -6.63         -1.687          124.7          21.09          16.48          85.63          102.0
    0.7946              -28.04          18.98          44.73          47.54         -6.126         -1.468          112.9          21.28           23.3          88.44          98.96
    0.8115              -29.52          18.24          47.91          49.28         -5.511         -1.202          98.42           21.5          31.61          91.86          95.19
